/* XPM */
static char *result[] = {
/* columns rows colors chars-per-pixel */
"48 48 2 1 ",
"  c #35355F",
". c #424C7D",
/* pixels */
"................................................",
"................................................",
"................................................",
"........................                    ....",
".......................                      ...",
".......................                      ...",
".......................                      ...",
".......................                      ...",
".......................                      ...",
".......................                      ...",
".......................                      ...",
".......................                      ...",
".......................                      ...",
"........................                    ....",
"................................................",
"................................................",
"........                    ....................",
".......                      ...................",
".......                      ...................",
".......                      ...................",
".......                      ...................",
".......                      ...................",
".......                      ...................",
".......                      ...................",
".......                      ...................",
".......                      ...................",
"........                    ....................",
"................................................",
"................................................",
"................................................",
"................................................",
"................................................",
"................................................",
"................................................",
"................................................",
"................................................",
".........................                    ...",
"........................                      ..",
"........................                      ..",
"........................                      ..",
"........................                      ..",
"........................                      ..",
"........................                      ..",
"........................                      ..",
"........................                      ..",
"........................                      ..",
".........................                    ...",
"................................................"
};
